<mxfile host="app.diagrams.net" modified="2023-05-25T05:27:30.667Z" agent="Mozilla/5.0 (Windows NT 10.0; Win64; x64) AppleWebKit/537.36 (KHTML, like Gecko) Chrome/113.0.0.0 Safari/537.36" etag="_V2f8E1zZRaEtilv57bM" version="21.2.9" type="device">
  <diagram name="第 1 页" id="1bQCLbJpFhF-mfvl0XeS">
    <mxGraphModel dx="1723" dy="730" grid="1" gridSize="10" guides="1" tooltips="1" connect="1" arrows="1" fold="1" page="1" pageScale="1" pageWidth="827" pageHeight="1169" math="0" shadow="0">
      <root>
        <mxCell id="0" />
        <mxCell id="1" parent="0" />
        <mxCell id="cVqaVuBIv6u9hTT0CM2t-9" style="edgeStyle=orthogonalEdgeStyle;rounded=0;orthogonalLoop=1;jettySize=auto;html=1;" edge="1" parent="1" source="cVqaVuBIv6u9hTT0CM2t-1" target="cVqaVuBIv6u9hTT0CM2t-7">
          <mxGeometry relative="1" as="geometry" />
        </mxCell>
        <mxCell id="cVqaVuBIv6u9hTT0CM2t-1" value="阿里云公网负载" style="rounded=0;whiteSpace=wrap;html=1;fillColor=#dae8fc;strokeColor=#6c8ebf;" vertex="1" parent="1">
          <mxGeometry x="305" y="170" width="120" height="60" as="geometry" />
        </mxCell>
        <mxCell id="cVqaVuBIv6u9hTT0CM2t-2" value="swift 架构" style="text;html=1;strokeColor=#666666;fillColor=#f5f5f5;align=center;verticalAlign=middle;whiteSpace=wrap;rounded=1;fontColor=#333333;shadow=1;glass=0;" vertex="1" parent="1">
          <mxGeometry x="60" y="40" width="110" height="60" as="geometry" />
        </mxCell>
        <mxCell id="cVqaVuBIv6u9hTT0CM2t-4" style="edgeStyle=orthogonalEdgeStyle;rounded=0;orthogonalLoop=1;jettySize=auto;html=1;" edge="1" parent="1" source="cVqaVuBIv6u9hTT0CM2t-3" target="cVqaVuBIv6u9hTT0CM2t-1">
          <mxGeometry relative="1" as="geometry" />
        </mxCell>
        <mxCell id="cVqaVuBIv6u9hTT0CM2t-3" value="公网域名例如： api-shipping.sherpa.com.cn" style="text;html=1;align=center;verticalAlign=middle;resizable=0;points=[];autosize=1;strokeColor=none;fillColor=none;" vertex="1" parent="1">
          <mxGeometry x="235" y="80" width="260" height="30" as="geometry" />
        </mxCell>
        <mxCell id="cVqaVuBIv6u9hTT0CM2t-6" value="public-slb/47.100.77.24&lt;br&gt;监听80，443端口" style="text;html=1;strokeColor=none;fillColor=none;align=center;verticalAlign=middle;whiteSpace=wrap;rounded=0;" vertex="1" parent="1">
          <mxGeometry x="425" y="182.5" width="190" height="35" as="geometry" />
        </mxCell>
        <mxCell id="cVqaVuBIv6u9hTT0CM2t-17" style="edgeStyle=orthogonalEdgeStyle;rounded=0;orthogonalLoop=1;jettySize=auto;html=1;entryX=0.47;entryY=-0.004;entryDx=0;entryDy=0;entryPerimeter=0;" edge="1" parent="1" source="cVqaVuBIv6u9hTT0CM2t-7" target="cVqaVuBIv6u9hTT0CM2t-11">
          <mxGeometry relative="1" as="geometry" />
        </mxCell>
        <mxCell id="cVqaVuBIv6u9hTT0CM2t-7" value="kong" style="rounded=0;whiteSpace=wrap;html=1;fillColor=#d5e8d4;strokeColor=#82b366;" vertex="1" parent="1">
          <mxGeometry x="305" y="290" width="120" height="60" as="geometry" />
        </mxCell>
        <mxCell id="cVqaVuBIv6u9hTT0CM2t-8" value="10.8.0.3&lt;br&gt;10.8.0.4" style="text;html=1;strokeColor=none;fillColor=none;align=center;verticalAlign=middle;whiteSpace=wrap;rounded=0;" vertex="1" parent="1">
          <mxGeometry x="386" y="302.5" width="190" height="35" as="geometry" />
        </mxCell>
        <mxCell id="cVqaVuBIv6u9hTT0CM2t-25" style="edgeStyle=orthogonalEdgeStyle;rounded=0;orthogonalLoop=1;jettySize=auto;html=1;entryX=0.5;entryY=0;entryDx=0;entryDy=0;" edge="1" parent="1" source="cVqaVuBIv6u9hTT0CM2t-11" target="cVqaVuBIv6u9hTT0CM2t-22">
          <mxGeometry relative="1" as="geometry" />
        </mxCell>
        <mxCell id="cVqaVuBIv6u9hTT0CM2t-11" value="" style="rounded=0;whiteSpace=wrap;html=1;fillColor=#fff2cc;strokeColor=#d6b656;" vertex="1" parent="1">
          <mxGeometry x="187" y="420" width="380" height="240" as="geometry" />
        </mxCell>
        <mxCell id="cVqaVuBIv6u9hTT0CM2t-12" value="php7&lt;br&gt;&lt;br&gt;10.8.0.16&lt;br&gt;10.8.0.17" style="whiteSpace=wrap;html=1;aspect=fixed;" vertex="1" parent="1">
          <mxGeometry x="270" y="440" width="90" height="90" as="geometry" />
        </mxCell>
        <mxCell id="cVqaVuBIv6u9hTT0CM2t-14" value="php5&lt;br&gt;&lt;br&gt;10.8.0.12&lt;br&gt;10.8.0.12&lt;br&gt;10.8.0.13&lt;br&gt;10.8.0.14" style="whiteSpace=wrap;html=1;aspect=fixed;" vertex="1" parent="1">
          <mxGeometry x="410" y="440" width="90" height="90" as="geometry" />
        </mxCell>
        <mxCell id="cVqaVuBIv6u9hTT0CM2t-15" value="php7 pre&lt;br&gt;&lt;br&gt;10.8.0.51" style="whiteSpace=wrap;html=1;aspect=fixed;" vertex="1" parent="1">
          <mxGeometry x="270" y="550" width="90" height="90" as="geometry" />
        </mxCell>
        <mxCell id="cVqaVuBIv6u9hTT0CM2t-16" value="php5 pre&lt;br&gt;&lt;br&gt;10.8.0.50" style="whiteSpace=wrap;html=1;aspect=fixed;" vertex="1" parent="1">
          <mxGeometry x="410" y="550" width="90" height="90" as="geometry" />
        </mxCell>
        <mxCell id="cVqaVuBIv6u9hTT0CM2t-18" value="api" style="text;html=1;strokeColor=#006EAF;fillColor=#1ba1e2;align=center;verticalAlign=middle;whiteSpace=wrap;rounded=0;fontColor=#ffffff;" vertex="1" parent="1">
          <mxGeometry x="200" y="430" width="60" height="30" as="geometry" />
        </mxCell>
        <mxCell id="cVqaVuBIv6u9hTT0CM2t-51" style="edgeStyle=orthogonalEdgeStyle;rounded=0;orthogonalLoop=1;jettySize=auto;html=1;entryX=0.424;entryY=0.006;entryDx=0;entryDy=0;entryPerimeter=0;" edge="1" parent="1" source="cVqaVuBIv6u9hTT0CM2t-20" target="cVqaVuBIv6u9hTT0CM2t-42">
          <mxGeometry relative="1" as="geometry" />
        </mxCell>
        <mxCell id="cVqaVuBIv6u9hTT0CM2t-20" value="" style="rounded=0;whiteSpace=wrap;html=1;fillColor=#fff2cc;strokeColor=#d6b656;" vertex="1" parent="1">
          <mxGeometry x="188" y="880" width="380" height="170" as="geometry" />
        </mxCell>
        <mxCell id="cVqaVuBIv6u9hTT0CM2t-30" style="edgeStyle=orthogonalEdgeStyle;rounded=0;orthogonalLoop=1;jettySize=auto;html=1;entryX=0.5;entryY=0;entryDx=0;entryDy=0;" edge="1" parent="1" source="cVqaVuBIv6u9hTT0CM2t-22" target="cVqaVuBIv6u9hTT0CM2t-28">
          <mxGeometry relative="1" as="geometry" />
        </mxCell>
        <mxCell id="cVqaVuBIv6u9hTT0CM2t-22" value="阿里云私网负载" style="rounded=0;whiteSpace=wrap;html=1;fillColor=#dae8fc;strokeColor=#6c8ebf;" vertex="1" parent="1">
          <mxGeometry x="317" y="725" width="120" height="60" as="geometry" />
        </mxCell>
        <mxCell id="cVqaVuBIv6u9hTT0CM2t-23" value="private-slb/10.8.253.241&lt;br&gt;监听9801，9502，80端口" style="text;html=1;strokeColor=none;fillColor=none;align=center;verticalAlign=middle;whiteSpace=wrap;rounded=0;" vertex="1" parent="1">
          <mxGeometry x="440" y="737.5" width="190" height="35" as="geometry" />
        </mxCell>
        <mxCell id="cVqaVuBIv6u9hTT0CM2t-31" style="edgeStyle=orthogonalEdgeStyle;rounded=0;orthogonalLoop=1;jettySize=auto;html=1;" edge="1" parent="1" source="cVqaVuBIv6u9hTT0CM2t-28" target="cVqaVuBIv6u9hTT0CM2t-20">
          <mxGeometry relative="1" as="geometry" />
        </mxCell>
        <mxCell id="cVqaVuBIv6u9hTT0CM2t-28" value="haproxy" style="text;html=1;strokeColor=#006EAF;fillColor=#1ba1e2;align=center;verticalAlign=middle;whiteSpace=wrap;rounded=0;fontColor=#ffffff;" vertex="1" parent="1">
          <mxGeometry x="347" y="810" width="60" height="30" as="geometry" />
        </mxCell>
        <mxCell id="cVqaVuBIv6u9hTT0CM2t-33" value="php&lt;br&gt;10.8.0.31&lt;br&gt;10.8.0.32&lt;br&gt;10.8.0.33" style="whiteSpace=wrap;html=1;aspect=fixed;" vertex="1" parent="1">
          <mxGeometry x="225" y="940" width="80" height="80" as="geometry" />
        </mxCell>
        <mxCell id="cVqaVuBIv6u9hTT0CM2t-34" value="swoole(9801)&lt;br&gt;10.8.0.31&lt;br&gt;10.8.0.32&lt;br&gt;10.8.0.33" style="whiteSpace=wrap;html=1;aspect=fixed;" vertex="1" parent="1">
          <mxGeometry x="347" y="940" width="80" height="80" as="geometry" />
        </mxCell>
        <mxCell id="cVqaVuBIv6u9hTT0CM2t-35" value="hyperf(9502)&lt;br&gt;10.8.0.36&lt;br&gt;10.8.0.37" style="whiteSpace=wrap;html=1;aspect=fixed;" vertex="1" parent="1">
          <mxGeometry x="460" y="940" width="80" height="80" as="geometry" />
        </mxCell>
        <mxCell id="cVqaVuBIv6u9hTT0CM2t-41" value="soa" style="text;html=1;strokeColor=#006EAF;fillColor=#1ba1e2;align=center;verticalAlign=middle;whiteSpace=wrap;rounded=0;fontColor=#ffffff;" vertex="1" parent="1">
          <mxGeometry x="200" y="890" width="60" height="30" as="geometry" />
        </mxCell>
        <mxCell id="cVqaVuBIv6u9hTT0CM2t-42" value="" style="rounded=0;whiteSpace=wrap;html=1;fillColor=#f9f7ed;strokeColor=#36393d;" vertex="1" parent="1">
          <mxGeometry x="119" y="1140" width="611" height="190" as="geometry" />
        </mxCell>
        <mxCell id="cVqaVuBIv6u9hTT0CM2t-43" value="app" style="text;html=1;strokeColor=#006EAF;fillColor=#1ba1e2;align=center;verticalAlign=middle;whiteSpace=wrap;rounded=0;fontColor=#ffffff;" vertex="1" parent="1">
          <mxGeometry x="120" y="1090" width="60" height="30" as="geometry" />
        </mxCell>
        <mxCell id="cVqaVuBIv6u9hTT0CM2t-44" value="mysql&lt;br&gt;10.8.0.111&lt;br&gt;10.8.0.112&lt;br&gt;10.8.0.113" style="whiteSpace=wrap;html=1;aspect=fixed;" vertex="1" parent="1">
          <mxGeometry x="151" y="1180" width="80" height="80" as="geometry" />
        </mxCell>
        <mxCell id="cVqaVuBIv6u9hTT0CM2t-45" value="mongodb&lt;br&gt;10.8.0.101&lt;br&gt;10.8.0.102&lt;br&gt;10.8.0.103&lt;br&gt;10.8.0.191" style="whiteSpace=wrap;html=1;aspect=fixed;" vertex="1" parent="1">
          <mxGeometry x="266" y="1180" width="80" height="80" as="geometry" />
        </mxCell>
        <mxCell id="cVqaVuBIv6u9hTT0CM2t-46" value="rabbitmq&lt;br&gt;&lt;br&gt;10.8.0.151" style="whiteSpace=wrap;html=1;aspect=fixed;" vertex="1" parent="1">
          <mxGeometry x="386" y="1180" width="80" height="80" as="geometry" />
        </mxCell>
        <mxCell id="cVqaVuBIv6u9hTT0CM2t-47" value="redis&lt;br&gt;阿里云&lt;br&gt;data-prod&lt;br&gt;session-prod" style="whiteSpace=wrap;html=1;aspect=fixed;" vertex="1" parent="1">
          <mxGeometry x="491" y="1180" width="80" height="80" as="geometry" />
        </mxCell>
        <mxCell id="cVqaVuBIv6u9hTT0CM2t-48" value="supervisor&lt;br&gt;10.8.0.34&lt;br&gt;10.8.0.35" style="whiteSpace=wrap;html=1;aspect=fixed;" vertex="1" parent="1">
          <mxGeometry x="596" y="1180" width="80" height="80" as="geometry" />
        </mxCell>
        <mxCell id="cVqaVuBIv6u9hTT0CM2t-52" value="10.8.0.5&lt;br&gt;10.8.0.6" style="text;html=1;strokeColor=none;fillColor=none;align=center;verticalAlign=middle;whiteSpace=wrap;rounded=0;" vertex="1" parent="1">
          <mxGeometry x="396" y="810" width="190" height="35" as="geometry" />
        </mxCell>
        <mxCell id="cVqaVuBIv6u9hTT0CM2t-59" style="edgeStyle=orthogonalEdgeStyle;rounded=0;orthogonalLoop=1;jettySize=auto;html=1;" edge="1" parent="1" source="cVqaVuBIv6u9hTT0CM2t-55" target="cVqaVuBIv6u9hTT0CM2t-58">
          <mxGeometry relative="1" as="geometry" />
        </mxCell>
        <mxCell id="cVqaVuBIv6u9hTT0CM2t-55" value="ops（10.8.0.1）" style="rounded=0;whiteSpace=wrap;html=1;fillColor=#cce5ff;strokeColor=#36393d;" vertex="1" parent="1">
          <mxGeometry x="775" y="170" width="120" height="60" as="geometry" />
        </mxCell>
        <mxCell id="cVqaVuBIv6u9hTT0CM2t-57" style="edgeStyle=orthogonalEdgeStyle;rounded=0;orthogonalLoop=1;jettySize=auto;html=1;" edge="1" parent="1" source="cVqaVuBIv6u9hTT0CM2t-56" target="cVqaVuBIv6u9hTT0CM2t-55">
          <mxGeometry relative="1" as="geometry" />
        </mxCell>
        <mxCell id="cVqaVuBIv6u9hTT0CM2t-56" value="后台服务例如：swiftmanage-admin.sherpa.com.cn&lt;br&gt;阿里云公网域名解析到ops机器）" style="text;html=1;align=center;verticalAlign=middle;resizable=0;points=[];autosize=1;strokeColor=none;fillColor=none;" vertex="1" parent="1">
          <mxGeometry x="690" y="83" width="290" height="40" as="geometry" />
        </mxCell>
        <mxCell id="cVqaVuBIv6u9hTT0CM2t-68" style="edgeStyle=orthogonalEdgeStyle;rounded=0;orthogonalLoop=1;jettySize=auto;html=1;entryX=0.5;entryY=0;entryDx=0;entryDy=0;" edge="1" parent="1" source="cVqaVuBIv6u9hTT0CM2t-58" target="cVqaVuBIv6u9hTT0CM2t-60">
          <mxGeometry relative="1" as="geometry" />
        </mxCell>
        <mxCell id="cVqaVuBIv6u9hTT0CM2t-58" value="nginx&lt;br&gt;（new-houtai.conf）" style="rounded=0;whiteSpace=wrap;html=1;fillColor=#d5e8d4;strokeColor=#82b366;" vertex="1" parent="1">
          <mxGeometry x="775" y="290" width="120" height="60" as="geometry" />
        </mxCell>
        <mxCell id="cVqaVuBIv6u9hTT0CM2t-60" value="" style="rounded=0;whiteSpace=wrap;html=1;fillColor=#fff2cc;strokeColor=#d6b656;" vertex="1" parent="1">
          <mxGeometry x="645" y="420" width="380" height="240" as="geometry" />
        </mxCell>
        <mxCell id="cVqaVuBIv6u9hTT0CM2t-61" value="swift-php&lt;br&gt;&lt;br&gt;10.8.0.15" style="whiteSpace=wrap;html=1;aspect=fixed;" vertex="1" parent="1">
          <mxGeometry x="728" y="440" width="90" height="90" as="geometry" />
        </mxCell>
        <mxCell id="cVqaVuBIv6u9hTT0CM2t-62" value="php7-swift&lt;br&gt;&lt;br&gt;10.8.0.16&lt;br&gt;10.8.0.17" style="whiteSpace=wrap;html=1;aspect=fixed;" vertex="1" parent="1">
          <mxGeometry x="868" y="440" width="90" height="90" as="geometry" />
        </mxCell>
        <mxCell id="cVqaVuBIv6u9hTT0CM2t-63" value="pre-php7-swift&lt;br&gt;10.8.0.51" style="whiteSpace=wrap;html=1;aspect=fixed;" vertex="1" parent="1">
          <mxGeometry x="728" y="550" width="90" height="90" as="geometry" />
        </mxCell>
        <mxCell id="cVqaVuBIv6u9hTT0CM2t-64" value="website&lt;br&gt;&lt;br&gt;10.6.0.141" style="whiteSpace=wrap;html=1;aspect=fixed;" vertex="1" parent="1">
          <mxGeometry x="868" y="550" width="90" height="90" as="geometry" />
        </mxCell>
        <mxCell id="cVqaVuBIv6u9hTT0CM2t-65" value="houtai" style="text;html=1;strokeColor=#006EAF;fillColor=#1ba1e2;align=center;verticalAlign=middle;whiteSpace=wrap;rounded=0;fontColor=#ffffff;" vertex="1" parent="1">
          <mxGeometry x="658" y="430" width="60" height="30" as="geometry" />
        </mxCell>
      </root>
    </mxGraphModel>
  </diagram>
</mxfile>
